<svg width="890" height="320" viewBox="0 0 890 320" fill="none" xmlns="http://www.w3.org/2000/svg" role="img" aria-label="netnyahoo">
  <defs>
    <linearGradient id="wm-badge" x1="40" y1="40" x2="280" y2="280" gradientUnits="userSpaceOnUse">
      <stop offset="0" stop-color="#5BE8FF"/>
      <stop offset="0.5" stop-color="#B98CFF"/>
      <stop offset="1" stop-color="#FF6FD8"/>
    </linearGradient>
    <linearGradient id="wm-gloss" x1="160" y1="40" x2="160" y2="200" gradientUnits="userSpaceOnUse">
      <stop offset="0" stop-color="#FFFFFF" stop-opacity="0.55"/>
      <stop offset="1" stop-color="#FFFFFF" stop-opacity="0"/>
    </linearGradient>
    <linearGradient id="wm-text" x1="360" y1="120" x2="1140" y2="220" gradientUnits="userSpaceOnUse">
      <stop offset="0" stop-color="#7A4DFF"/>
      <stop offset="1" stop-color="#FF6FD8"/>
    </linearGradient>
  </defs>

  <!-- icon mark (scaled from logo.svg, viewBox 0..320) -->
  <g transform="translate(40 40) scale(0.46875)">
    <rect x="46" y="46" width="420" height="420" rx="124" fill="url(#wm-badge)"/>
    <rect x="70" y="66" width="372" height="210" rx="104" fill="url(#wm-gloss)"/>
    <ellipse cx="256" cy="286" rx="150" ry="64" transform="rotate(-22 256 286)"
             stroke="#FFFFFF" stroke-opacity="0.5" stroke-width="14" fill="none"/>
    <g stroke="#FFFFFF" stroke-width="46" stroke-linecap="round" stroke-linejoin="round" fill="none">
      <path d="M178 360 V206"/>
      <path d="M178 258 C178 200 334 200 334 262 V360"/>
    </g>
    <path d="M405 84 C411 116 416 121 448 127 C416 133 411 138 405 170 C399 138 394 133 362 127 C394 121 399 116 405 84 Z" fill="#DBFF5B"/>
  </g>

  <!-- wordmark -->
  <text x="332" y="207" font-family="'Baloo 2','Quicksand','Nunito','Segoe UI',system-ui,sans-serif"
        font-size="108" font-weight="700" letter-spacing="-3" fill="url(#wm-text)">netnyahoo</text>
</svg>
